<svg width="651" height="520" viewBox="0 0 651 520" fill="none" xmlns="http://www.w3.org/2000/svg">
  <path d="M466 436C223.2 436 149.167 154.667 142.5 14H102L67.5 70.5L59 341L102 446.5L268 460.5C435.167 452.333 708.8 436 466 436Z" fill="#13192A" fill-opacity="0.1"/>
  <path d="M592 150.758V117.5C592 62.2715 547.228 17.5 492 17.5H159C103.772 17.5 59 62.2715 59 117.5V376.5C59 431.728 103.772 476.5 159 476.5H492C547.228 476.5 592 431.728 592 376.5V343.242" stroke="#13192A" stroke-width="35" stroke-linecap="round"/>
  <line x1="208" y1="175.5" x2="208" y2="310.5" stroke="#13192A" stroke-width="40" stroke-linecap="round"/>
  <line x1="277" y1="242.5" x2="142" y2="242.5" stroke="#13192A" stroke-width="40" stroke-linecap="round"/>
  <circle cx="402.5" cy="243" r="27" fill="#00CB80" stroke="#13192A"/>
  <circle cx="464.5" cy="183" r="27" fill="#FFB400" stroke="#13192A"/>
  <circle cx="464.5" cy="305" r="27" fill="#4B59F6" stroke="#13192A"/>
  <circle cx="528.5" cy="243" r="27" fill="#FF003C" stroke="#13192A"/>
</svg>
