<svg width="651" height="1038" viewBox="0 0 651 1038" fill="none" xmlns="http://www.w3.org/2000/svg">
<path d="M466 430C223.2 430 149.167 148.667 142.5 8H102L67.5 64.5L59 335L102 440.5L268 454.5C435.167 446.333 708.8 430 466 430Z" fill="#F7F7F7" fill-opacity="0.1"/>
<path d="M592 150.758V117.5C592 62.2715 547.228 17.5 492 17.5H159C103.772 17.5 59 62.2715 59 117.5V376.5C59 431.728 103.772 476.5 159 476.5H492C547.228 476.5 592 431.728 592 376.5V343.242" stroke="#F7F7F7" stroke-width="35" stroke-linecap="round"/>
<line x1="208" y1="175.5" x2="208" y2="310.5" stroke="#F7F7F7" stroke-width="40" stroke-linecap="round"/>
<line x1="277" y1="242.5" x2="142" y2="242.5" stroke="#F7F7F7" stroke-width="40" stroke-linecap="round"/>
<circle cx="402.5" cy="243" r="27" fill="#00CB80" stroke="#F7F7F7"/>
<circle cx="464.5" cy="183" r="27" fill="#FFB400" stroke="#F7F7F7"/>
<circle cx="464.5" cy="305" r="27" fill="#4B59F6" stroke="#F7F7F7"/>
<circle cx="528.5" cy="243" r="27" fill="#FF003C" stroke="#F7F7F7"/>
<path d="M163.564 728.598C159.74 733.399 155.02 737.59 149.404 741.171C143.789 744.752 137.767 747.722 131.338 750.082C124.909 752.442 118.317 754.192 111.562 755.331C104.808 756.552 98.3789 757.162 92.2754 757.162C80.4753 757.162 69.611 755.046 59.6826 750.814C49.7542 746.583 41.1686 740.764 33.9258 733.358C26.7643 725.871 21.1491 717.082 17.0801 706.991C13.0111 696.9 10.9766 686.036 10.9766 674.398C10.9766 665.528 11.9938 656.861 14.0283 648.397C16.0628 639.853 18.9518 631.837 22.6953 624.35C26.5202 616.781 31.1589 609.864 36.6113 603.598C42.0638 597.25 48.2487 591.798 55.166 587.24C62.0833 582.683 69.6517 579.143 77.8711 576.62C86.0905 574.097 94.8796 572.836 104.238 572.836C107.738 572.836 111.481 572.999 115.469 573.324C119.456 573.568 123.403 574.057 127.31 574.789C131.297 575.44 135.163 576.376 138.906 577.597C142.65 578.817 146.068 580.323 149.16 582.113L145.742 628.744C141.185 627.035 136.465 625.896 131.582 625.326C126.781 624.675 122.061 624.35 117.422 624.35C110.911 624.35 104.808 625.367 99.1113 627.401C93.4961 629.354 88.5726 632.203 84.3408 635.946C80.1904 639.69 76.8945 644.247 74.4531 649.618C72.0117 654.989 70.791 661.052 70.791 667.807C70.791 672.038 71.3607 676.148 72.5 680.136C73.6393 684.042 75.3483 687.541 77.627 690.634C79.987 693.645 82.876 696.086 86.2939 697.958C89.7933 699.83 93.8216 700.766 98.3789 700.766C101.471 700.766 104.645 700.359 107.9 699.545C111.237 698.731 114.085 697.348 116.445 695.395L116.934 685.873L87.6367 685.385L89.1016 648.764C101.227 648.357 113.353 648.031 125.479 647.787C137.604 647.462 149.811 647.055 162.1 646.566L163.564 728.598Z" fill="#00CB80"/>
<path d="M326.895 743.002L266.348 750.814L259.023 723.227H231.191L225.088 750.814L162.832 744.711L211.416 582.113L279.287 578.695L326.895 743.002ZM254.629 685.873L245.352 643.393L236.318 685.873H254.629Z" fill="#FFB400"/>
<path d="M518.179 575.521L506.948 754.721L451.284 757.162L451.772 662.68L426.626 738.852H405.142L385.854 670.736L385.61 749.838L329.214 751.547L331.655 582.846L394.399 580.404L419.302 661.215L452.505 575.521H518.179Z" fill="#4B59F6"/>
<path d="M642.812 577.475C642.324 585.124 641.877 592.693 641.47 600.18C641.063 607.667 640.534 615.235 639.883 622.885L588.125 625.57L586.904 640.951H623.281L620.596 678.793L583.975 680.014L582.754 697.836H613.027H634.512C634.023 706.788 633.494 715.699 632.925 724.569C632.437 733.358 631.989 742.188 631.582 751.059L526.357 753.5L530.264 577.475H642.812Z" fill="#FF003C"/>
<path d="M250.815 910.043C250.815 916.798 249.554 922.616 247.031 927.499C244.59 932.382 241.294 936.532 237.144 939.95C232.993 943.368 228.192 946.176 222.739 948.373C217.368 950.489 211.753 952.157 205.894 953.378C200.034 954.599 194.134 955.412 188.193 955.819C182.334 956.226 176.841 956.43 171.714 956.43C166.668 956.43 161.419 956.226 155.967 955.819C150.596 955.494 145.225 954.883 139.854 953.988C134.482 953.093 129.193 951.913 123.984 950.448C118.776 948.902 113.853 946.99 109.214 944.711L108.97 787.484C113.527 785.613 118.369 783.944 123.496 782.479C128.623 780.933 133.831 779.672 139.121 778.695C144.492 777.637 149.823 776.864 155.112 776.376C160.402 775.806 165.529 775.521 170.493 775.521C176.271 775.521 182.09 775.888 187.949 776.62C193.89 777.353 199.587 778.573 205.039 780.282C210.492 781.991 215.578 784.229 220.298 786.996C225.018 789.682 229.128 793.018 232.627 797.006C236.208 800.993 238.975 805.632 240.928 810.922C242.962 816.212 243.979 822.315 243.979 829.232C243.979 833.79 243.328 838.062 242.026 842.05C240.724 846.037 238.853 849.618 236.411 852.792C233.97 855.966 230.999 858.692 227.5 860.971C224.001 863.168 220.054 864.796 215.659 865.854C220.949 867.237 225.75 869.271 230.063 871.957C234.458 874.643 238.161 877.898 241.172 881.723C244.264 885.548 246.624 889.861 248.252 894.662C249.961 899.464 250.815 904.59 250.815 910.043ZM188.804 840.463C188.804 838.103 188.315 836.109 187.339 834.481C186.362 832.772 185.142 831.389 183.677 830.331C182.293 829.273 180.747 828.5 179.038 828.012C177.41 827.523 175.946 827.279 174.644 827.279C173.016 827.279 171.429 827.523 169.883 828.012C168.337 828.5 166.831 829.07 165.366 829.721L164.634 856.82C166.506 856.82 168.825 856.658 171.592 856.332C174.359 856.007 177.004 855.315 179.526 854.257C182.131 853.118 184.328 851.49 186.118 849.374C187.909 847.177 188.804 844.206 188.804 840.463ZM171.47 880.258C169.11 880.258 166.831 880.502 164.634 880.99L164.146 908.822C165.366 909.066 166.546 909.311 167.686 909.555C168.906 909.717 170.086 909.799 171.226 909.799C172.935 909.799 174.806 909.636 176.841 909.311C178.875 908.904 180.788 908.171 182.578 907.113C184.368 905.974 185.833 904.468 186.973 902.597C188.193 900.725 188.804 898.243 188.804 895.15C188.804 892.058 188.193 889.535 186.973 887.582C185.833 885.629 184.409 884.123 182.7 883.065C180.991 881.926 179.119 881.194 177.085 880.868C175.05 880.461 173.179 880.258 171.47 880.258ZM405.601 859.994C405.601 867.4 404.746 874.561 403.037 881.479C401.328 888.314 398.846 894.743 395.591 900.766C392.417 906.788 388.511 912.322 383.872 917.367C379.315 922.331 374.147 926.604 368.369 930.185C362.673 933.765 356.447 936.573 349.692 938.607C342.938 940.561 335.776 941.537 328.208 941.537C320.884 941.537 313.885 940.601 307.212 938.729C300.62 936.858 294.435 934.254 288.657 930.917C282.879 927.499 277.63 923.43 272.91 918.71C268.271 913.909 264.284 908.619 260.947 902.841C257.692 896.981 255.129 890.715 253.257 884.042C251.466 877.369 250.571 870.411 250.571 863.168C250.571 856.088 251.426 849.171 253.135 842.416C254.844 835.58 257.285 829.151 260.459 823.129C263.714 817.107 267.62 811.573 272.178 806.527C276.735 801.482 281.821 797.128 287.437 793.466C293.133 789.804 299.277 786.955 305.869 784.921C312.461 782.886 319.419 781.869 326.743 781.869C338.543 781.869 349.285 783.7 358.97 787.362C368.735 791.024 377.036 796.273 383.872 803.109C390.789 809.864 396.12 818.083 399.863 827.768C403.688 837.37 405.601 848.113 405.601 859.994ZM351.401 863.168C351.401 859.669 350.872 856.291 349.814 853.036C348.838 849.7 347.373 846.77 345.42 844.247C343.467 841.643 341.025 839.568 338.096 838.021C335.247 836.394 331.951 835.58 328.208 835.58C324.383 835.58 320.965 836.272 317.954 837.655C314.943 839.039 312.339 840.951 310.142 843.393C308.026 845.753 306.398 848.56 305.259 851.815C304.119 854.989 303.55 858.367 303.55 861.947C303.55 865.365 304.038 868.783 305.015 872.201C305.991 875.619 307.456 878.712 309.409 881.479C311.362 884.245 313.763 886.483 316.611 888.192C319.541 889.901 322.918 890.756 326.743 890.756C330.568 890.756 333.986 890.023 336.997 888.559C340.09 887.012 342.694 884.978 344.81 882.455C346.925 879.851 348.553 876.881 349.692 873.544C350.832 870.207 351.401 866.749 351.401 863.168ZM553.306 787.24L505.698 865.121L548.667 934.701L497.642 950.57L473.228 903.207L447.349 953.256L394.614 934.213L439.536 863.412L398.521 793.832L454.429 780.404L474.448 824.594L495.688 780.404L553.306 787.24Z" fill="#F7F7F7"/>
</svg>
