<svg xmlns="http://www.w3.org/2000/svg" viewBox="0 0 1200 630" role="img" aria-labelledby="title desc">
  <title>Del-it</title>
  <desc>Del-it akıllı fotoğraf temizleme deneyimi</desc>
  <rect width="1200" height="630" fill="#050505"/>
  <rect x="70" y="70" width="1060" height="490" rx="42" fill="#0f1118" stroke="rgba(255,255,255,0.18)"/>
  <circle cx="960" cy="120" r="240" fill="#2f6bff" opacity="0.22"/>
  <circle cx="1015" cy="510" r="250" fill="#8b5cf6" opacity="0.18"/>
  <g transform="translate(810 155)">
    <rect width="250" height="250" rx="44" fill="#f5f3ef"/>
    <path d="M62 60h48c53 0 90 36 90 90s-37 90-90 90H62V60Zm48 142c30 0 48-20 48-52s-18-52-48-52H94v104h16Z" fill="#050505"/>
    <path d="M114 60h86v28h-86z" fill="#2f6bff"/>
  </g>
  <text x="110" y="188" fill="#ffffff" font-family="Inter, Arial, sans-serif" font-size="30" font-weight="700" letter-spacing="10">DEL-IT</text>
  <text x="110" y="295" fill="#ffffff" font-family="Inter, Arial, sans-serif" font-size="74" font-weight="900">Akıllı fotoğraf</text>
  <text x="110" y="385" fill="#6d7dff" font-family="Inter, Arial, sans-serif" font-size="96" font-weight="900">temizleme deneyimi.</text>
  <text x="112" y="468" fill="rgba(255,255,255,0.68)" font-family="Inter, Arial, sans-serif" font-size="28">Benzer kareleri bulun, gereksiz fotoğrafları ayıklayın, alan kazanın.</text>
</svg>
