<svg xmlns="http://www.w3.org/2000/svg" viewBox="0 0 1200 630" role="img" aria-labelledby="title desc">
  <title>The AP Design</title>
  <desc>Premium kreatif stüdyo marka önizlemesi</desc>
  <rect width="1200" height="630" fill="#050505"/>
  <rect x="70" y="70" width="1060" height="490" rx="42" fill="#0f1118" stroke="rgba(255,255,255,0.18)"/>
  <circle cx="957" cy="165" r="240" fill="#2f6bff" opacity="0.25"/>
  <circle cx="1030" cy="505" r="240" fill="#8b5cf6" opacity="0.2"/>
  <g transform="translate(770 120)">
    <rect width="330" height="330" rx="42" fill="#f5f3ef"/>
    <g transform="translate(0 -4) scale(0.305)">
      <polygon fill="#070707" stroke="#000" stroke-miterlimit="10" stroke-width="3" points="437.7 681.3 298.2 681.3 292.4 693.6 259.8 762.6 212.6 862.6 151.1 862.6 229 697.4 236.6 681.3 261.6 628.4 262.8 626 411.6 626 437.7 681.3"/>
      <path fill="#070707" stroke="#000" stroke-miterlimit="10" stroke-width="3" d="M872.5,420.5c0-77.1-59.9-140.2-135.7-145.2-3.2-.2-6.5-.3-9.8-.3s-6.7.1-10,.3h-127.9l-2.2-4.7c-1.7,1.5-3.4,3.1-5,4.7h-64.5l25.3,53.7,39.1,82.8,59.8,126.7,38.4,81.3,2.9,6.2,26.1,55.3,85.6,181.3h-62.6l-85.6-181.3-26.1-55.3-21.1-44.7-78.1-165.4-48.8-103.3-17.6-37.2-13.2-28h0s-14.1-30-14.1-30h314.4c49.1,4,93.2,25.3,126.3,57.9,37.6,37,60.9,88.5,60.9,145.4,0,103.1-76.5,188.4-175.9,202.1l-26.8-56.7h.2c.2,0,.3,0,.5,0,80.4,0,145.6-65.2,145.6-145.6Z"/>
      <polygon fill="#070707" stroke="#000" stroke-miterlimit="10" stroke-width="3" points="653 862.6 590.4 862.6 504.8 681.3 478.7 626 401.5 462.4 370.7 397.2 370.7 397.2 402 330.9 432.8 396.1 541.3 626 567.4 681.3 653 862.6"/>
    </g>
  </g>
  <text x="110" y="190" fill="#ffffff" font-family="Inter, Arial, sans-serif" font-size="30" font-weight="700" letter-spacing="10">THEAPDESIGN.ART</text>
  <text x="110" y="300" fill="#ffffff" font-family="Inter, Arial, sans-serif" font-size="70" font-weight="900">Premium hissettiren</text>
  <text x="110" y="390" fill="#6d7dff" font-family="Inter, Arial, sans-serif" font-size="94" font-weight="900">tasarım.</text>
  <text x="112" y="465" fill="rgba(255,255,255,0.68)" font-family="Inter, Arial, sans-serif" font-size="28">Modern web siteleri, arayüzler ve marka görselleri.</text>
</svg>
